HIERARCHY
ROOT simHips
{
  OFFSET 17.5636 99.2952 -1.90972
  CHANNELS 6 Xposition Yposition Zposition Zrotation Xrotation Yrotation
  JOINT simSpine
  {
    OFFSET -0.000355721 21.3001 -0.016921
    CHANNELS 3 Zrotation Xrotation Yrotation
    JOINT simLeftArm
    {
      OFFSET 13.5181 21.3012 0
      CHANNELS 3 Zrotation Xrotation Yrotation
      JOINT simLeftForeArm
      {
        OFFSET 24.5783 0 0
        CHANNELS 3 Zrotation Xrotation Yrotation
        JOINT simLeftHand
        {
          OFFSET 24.5783 0 0
          CHANNELS 3 Zrotation Xrotation Yrotation
          End Site
          {
            OFFSET 7.32568 1.52588e-005 0.0169305
          }
        }
      }
    }
    JOINT simHead
    {
      OFFSET 0 27.4458 -0.00489235
      CHANNELS 3 Zrotation Xrotation Yrotation
      End Site
      {
        OFFSET 0 0 0
      }
    }
    JOINT simRightArm
    {
      OFFSET -13.5174 21.3012 0
      CHANNELS 3 Zrotation Xrotation Yrotation
      JOINT simRightForeArm
      {
        OFFSET -24.5783 0 0
        CHANNELS 3 Zrotation Xrotation Yrotation
        JOINT simRightHand
        {
          OFFSET -24.5783 0 0
          CHANNELS 3 Zrotation Xrotation Yrotation
          End Site
          {
            OFFSET -7.32568 1.52588e-005 0.0169305
          }
        }
      }
    }
  }
  JOINT simRightUpLeg
  {
    OFFSET -8.44614 -9.41038 0.835684
    CHANNELS 3 Zrotation Xrotation Yrotation
    JOINT simRightLeg
    {
      OFFSET 0 -40.9639 0
      CHANNELS 3 Zrotation Xrotation Yrotation
      JOINT simRightFoot
      {
        OFFSET 0 -40.9639 0
        CHANNELS 3 Zrotation Xrotation Yrotation
        End Site
        {
          OFFSET 0.50614 -9.67405 14.6709
        }
      }
    }
  }
  JOINT simLeftUpLeg
  {
    OFFSET 8.44614 -9.41038 0.835684
    CHANNELS 3 Zrotation Xrotation Yrotation
    JOINT simLeftLeg
    {
      OFFSET 0 -40.9639 0
      CHANNELS 3 Zrotation Xrotation Yrotation
      JOINT simLeftFoot
      {
        OFFSET 0 -40.9639 0
        CHANNELS 3 Zrotation Xrotation Yrotation
        End Site
        {
          OFFSET -0.50614 -9.67405 14.6709
        }
      }
    }
  }
}
MOTION
Frames:	12
Frame Time:	0.0333333
17.5636 99.2952 -1.90972 -0.00262681 0 7.33712e-008 -0.00745542 2.08724e-015 -0.0102544 -6.83019e-006 -1.70755e-006 -1.53679e-005 5.97643e-006 1.70755e-006 -0.000455636 1.65625e-014 -3.36638e-021 -9.8572e-006 -8.53774e-007 3.18056e-015 -4.26887e-007 6.83019e-006 -8.53773e-007 5.12264e-006 0.00962879 -5.97642e-006 2.88973e-006 0.00160964 6.83019e-006 9.71271e-006 -1.74894 4.01016 0.102306 -0.00166321 5.38894 0.0228869 1.76144 -9.39858 0.161266 1.05032 7.85042 -0.0722015 -5.41596e-005 0.0339556 -0.000111213 -1.05136 -7.88438 -0.0800272 
17.5641 99.2952 -1.90582 -0.00262831 0.00635969 0.0134672 -0.00744753 0.0440425 -0.0102545 0.063133 0.0691244 -0.0194956 -0.035188 -0.0137834 -0.000455636 0.00777738 -0.00157036 -0.0131277 0.134696 -0.0594802 0.187375 -0.0645399 0.0377052 -0.0682738 0.00962878 0.0240364 2.88973e-006 0.00161041 0.0116047 -0.00381292 -1.76319 4.01124 0.118734 -0.00165603 5.37104 0.0228862 1.77178 -9.39518 0.141806 1.03884 7.85783 -0.0946451 0.00325878 0.0306545 0.00382798 -1.02436 -7.88547 -0.0800274 
17.5878 99.295 -1.90381 -0.00262755 0.0140292 0.00299751 0.00113299 0.0692205 -0.0102545 0.0760162 0.147768 0.00303789 -0.0182276 0.0191883 -0.000455636 0.044927 0.0247114 -0.150717 0.237135 -0.0554524 0.415264 -0.158504 0.0689505 -0.0982134 0.00962878 0.0548643 2.88973e-006 0.00160615 0.0217385 0.00919717 -1.77165 3.99403 0.129622 -0.00529615 5.42992 0.0228884 1.79119 -9.42156 0.130259 1.02216 7.81826 -0.0890051 0.0122864 0.111143 0.0135596 -1.00953 -7.93609 -0.0800372 
17.6188 99.2932 -1.87339 -0.0026145 0.0264616 -0.0266516 0.0148755 0.0957928 -0.0102545 0.122412 0.0689322 0.0720805 -0.000429942 -0.0383339 -0.000455636 0.0467814 0.0163082 -0.0215797 0.291369 -0.00482263 0.633127 -0.266905 0.0888988 -0.0994133 0.00871456 0.0505249 0.00017153 -0.00612563 0.0235841 0.0313562 -1.77486 4.03629 0.144944 -0.017446 5.36597 0.0208068 1.80698 -9.41654 0.135295 1.00366 7.89767 -0.0841803 0.0220425 -0.00987737 0.0286118 -1.00807 -7.93338 -0.07343 
17.6535 99.2919 -1.84235 -0.0093152 0.0391111 -0.0600653 0.0120253 0.119626 -0.00757265 0.177927 0.0548541 0.11263 -0.00569164 -0.0168258 8.459e-005 0.0419023 0.0232773 -0.0943265 0.339883 0.0637872 0.687421 -0.347792 0.104651 -0.0543122 -0.00747833 0.0682975 0.0230403 -0.0165142 0.0469289 0.0639088 -1.80423 4.02612 0.168238 -0.0162784 5.35207 0.0363492 1.85885 -9.42234 0.15274 0.982038 7.87808 -0.0764239 0.020469 0.034311 0.0447677 -1.01131 -7.95844 -0.0534866 
17.6886 99.2914 -1.81217 -0.0169609 0.0468068 -0.111766 0.00782544 0.157616 -0.00489084 0.205641 0.052541 0.163464 -0.0306598 -0.0760437 -0.0462595 0.037495 0.00139136 -0.0503201 0.365826 0.152389 0.654451 -0.357905 0.121611 -0.0363992 -0.0415167 0.0557792 0.162338 -0.0406136 0.0590638 0.121345 -1.82091 4.01476 0.173591 -0.0156429 5.40217 0.0545054 1.86085 -9.43532 0.174194 0.96024 7.90667 -0.0787124 0.0135795 0.00875162 0.0647647 -1.01893 -7.95298 -0.0283229 
17.7259 99.2912 -1.78228 -0.0264116 0.0510582 -0.159027 0.00381924 0.199792 -0.00491739 0.196129 0.148774 0.178885 -0.0235161 -0.0552639 -0.14864 0.0416188 0.0108993 -0.249689 0.355928 0.230366 0.65297 -0.277987 0.156135 -0.0268926 -0.0975793 0.0693969 0.34572 -0.0641075 0.0745407 0.237266 -1.83484 4.07339 0.184025 -0.0162148 5.30723 0.0704915 1.86648 -9.39872 0.190983 0.952183 7.92648 -0.0488674 -0.0121192 0.0171154 0.0822868 -0.965005 -7.93122 -0.0389552 
17.7729 99.2907 -1.7558 -0.0348571 0.0625347 -0.173821 -0.0458875 0.236995 -0.0112635 0.214229 0.0538965 0.160401 0.0168772 -0.0199276 -0.221141 0.0646401 0.0291551 -0.390099 0.394344 0.284617 0.654716 -0.111485 0.289532 -0.0235643 -0.16294 0.10513 0.516599 -0.112728 0.0998873 0.395273 -1.86359 4.08134 0.190403 -0.0151864 5.2911 0.0907292 1.92202 -9.4048 0.204394 0.939559 7.8849 0.019302 -0.039553 0.121511 0.105963 -0.915189 -7.96683 -0.064346 
17.8216 99.2892 -1.72302 -0.0443556 0.0893868 -0.220378 -0.065826 0.28629 0.0535222 0.155542 0.0803638 0.158255 0.0596288 -0.0966236 -0.486995 0.148399 0.0215542 -0.502743 0.414213 0.285887 0.709876 0.059552 0.412414 -0.109833 -0.270146 0.0953988 0.81353 -0.107063 0.114731 0.518331 -1.89762 4.08672 0.196661 -0.0127925 5.25894 0.104472 1.92244 -9.42404 0.239214 0.891444 7.86549 -0.124793 0.00390515 0.143059 0.130474 -0.964432 -8.03525 0.0403632 
17.8816 99.2887 -1.69316 -0.0621087 0.124308 -0.230863 -0.121554 0.334076 0.0830554 0.0913863 0.124247 0.19381 0.110143 -0.128583 -0.876212 0.211588 0.0252683 -0.754392 0.502259 0.238357 0.775652 0.25489 0.686215 -0.275232 -0.385855 -0.0548554 1.34977 -0.0387394 0.0544016 0.77385 -1.93155 4.08686 0.195035 -0.0113004 5.21885 0.116616 1.95891 -9.43197 0.248251 0.863977 7.90083 -0.167951 0.0131604 0.0533164 0.150884 -0.959725 -8.03421 0.0578051 
17.9529 99.2864 -1.66379 -0.0722241 0.165239 -0.208068 -0.151165 0.399862 0.0765653 0.00597391 0.185187 0.348141 0.118706 -0.314772 -1.44887 0.243608 -0.0726413 -1.11606 0.573981 0.163073 0.888144 0.471304 1.09842 -0.494894 -0.675509 -0.145846 2.21393 -0.0799642 0.0930715 1.16498 -1.9681 4.12754 0.193986 -0.0124934 5.11351 0.129745 2.02235 -9.41937 0.2621 0.841055 7.93884 -0.160166 0.00867983 -0.0427456 0.160424 -0.930819 -8.01773 0.0310799 
18.0339 99.2838 -1.63162 -0.0894172 0.212447 -0.170463 -0.192067 0.490353 0.0522096 -0.0819389 0.534285 0.529309 0.117055 -0.312814 -2.11568 0.170416 -0.13354 -2.05061 0.697606 0.0493035 0.925066 0.674858 1.95787 -0.830614 -1.03602 -0.390167 3.59639 -0.120228 0.121944 1.64097 -2.00896 4.09754 0.202506 -0.0232122 5.11429 0.131513 2.0895 -9.46542 0.248114 0.812283 7.80095 -0.161947 -0.0121713 0.132293 0.163909 -0.873576 -8.0902 0.0052135 
